<?xml version="1.0" encoding="utf-8"?>
<!-- Generator: Adobe Illustrator 16.2.1, SVG Export Plug-In . SVG Version: 6.00 Build 0)  -->
<!DOCTYPE svg PUBLIC "-//W3C//DTD SVG 1.1//EN" "http://www.w3.org/Graphics/SVG/1.1/DTD/svg11.dtd">
<svg version="1.1" id="Layer_1" xmlns="http://www.w3.org/2000/svg" xmlns:xlink="http://www.w3.org/1999/xlink" x="0px" y="0px"
	 width="512px" height="256px" viewBox="0 0 512 256" enable-background="new 0 0 512 256" xml:space="preserve">
<g id="Layer_2">
	<path fill="#D6D6D0" d="M463.322,116.218c0,27.613-22.386,50-50,50H106.891c-27.614,0-50-22.387-50-50v-43.95
		c0-27.613,22.386-50,50-50h306.432c27.614,0,50,22.387,50,50L463.322,116.218L463.322,116.218z"/>
</g>
<g id="Layer_1_1_">
	<path fill="#DDDDDD" d="M492.943,225.643c0,5.523-4.479,10-10,10H29.057c-5.523,0-10-4.477-10-10V67.299c0-5.523,4.477-10,10-10
		h453.887c5.521,0,10,4.477,10,10L492.943,225.643L492.943,225.643z"/>
	
		<rect x="273.452" y="85.325" fill="#CECECC" stroke="#BABABA" stroke-width="5" stroke-miterlimit="10" width="203.185" height="23.565"/>
	<rect x="449.886" y="94.242" fill="#ED1C24" width="18.472" height="7.645"/>
	<rect x="425.415" y="94.242" fill="#ED1C24" width="18.471" height="7.645"/>
	
		<rect x="273.452" y="122.904" fill="#CECECC" stroke="#BABABA" stroke-width="5" stroke-miterlimit="10" width="203.185" height="23.566"/>
	<rect x="449.886" y="131.822" fill="#ED1C24" width="18.472" height="7.644"/>
	<rect x="425.415" y="131.822" fill="#ED1C24" width="18.471" height="7.644">
	<animateColor
	    attributeName="fill"  
	    begin="0s"  
	    dur="0.5s"  
	    values ="#ED1C24; #ef5c62; #ED1C24"
	    repeatCount="indefinite"   
	    /> 
	</rect>
	<circle fill="#CECECC" stroke="#BABABA" stroke-width="5" stroke-miterlimit="10" cx="446.886" cy="191.694" r="12.235"/>
	<circle fill="#CECECC" stroke="#BABABA" stroke-width="5" stroke-miterlimit="10" cx="411.751" cy="191.694" r="12.235"/>
	<path fill="#323A31" stroke="#BABABA" stroke-width="13" stroke-miterlimit="10" d="M249.249,198.446c0,11.046-8.954,20-20,20
		H55.873c-11.046,0-20-8.954-20-20V96.407c0-11.046,8.954-20,20-20h173.376c11.046,0,20,8.954,20,20V198.446L249.249,198.446z"/>
	<rect x="60.013" y="94.243" fill="#009444" width="20.382" height="7.644"/>
	<rect x="122.943" y="94.242" fill="#009444" width="20.382" height="7.645"/>
	<rect x="92.243" y="94.243" fill="#009444" width="20.383" height="7.644"/>
	<rect x="172.803" y="196.286" fill="#009444" width="20.382" height="7.644"/>
	<rect x="205.033" y="196.286" fill="#009444" width="20.382" height="7.643"/>
	<rect x="60.013" y="111.439" fill="#009444" width="3.248" height="40.765">
		<animate attributeType="xml" attributeName="width" values="3.248;90;3.248" dur="2s" repeatCount="indefinite" />
	</rect>
	<rect x="60.013" y="155.439" fill="#009444" width="3.248" height="40.765">
		<animate attributeType="xml" attributeName="width" values="3.248;20;3.248;40;3.248;10;3.248;15;3.248" dur="3.5s" begin="0.5s" repeatCount="indefinite" />
	</rect>
</g>
</svg>
